<svg xmlns="http://www.w3.org/2000/svg" viewBox="0 0 512 512">
  <!-- Background -->
  <rect width="512" height="512" rx="96" fill="#0ea5e9"/>
  <!-- Film frame top/bottom strips -->
  <rect x="48" y="64" width="416" height="48" rx="8" fill="#0369a1"/>
  <rect x="48" y="400" width="416" height="48" rx="8" fill="#0369a1"/>
  <!-- Film sprocket holes top -->
  <rect x="72" y="76" width="28" height="24" rx="4" fill="#e0f2fe"/>
  <rect x="128" y="76" width="28" height="24" rx="4" fill="#e0f2fe"/>
  <rect x="184" y="76" width="28" height="24" rx="4" fill="#e0f2fe"/>
  <rect x="240" y="76" width="28" height="24" rx="4" fill="#e0f2fe"/>
  <rect x="296" y="76" width="28" height="24" rx="4" fill="#e0f2fe"/>
  <rect x="352" y="76" width="28" height="24" rx="4" fill="#e0f2fe"/>
  <rect x="408" y="76" width="28" height="24" rx="4" fill="#e0f2fe"/>
  <!-- Film sprocket holes bottom -->
  <rect x="72" y="412" width="28" height="24" rx="4" fill="#e0f2fe"/>
  <rect x="128" y="412" width="28" height="24" rx="4" fill="#e0f2fe"/>
  <rect x="184" y="412" width="28" height="24" rx="4" fill="#e0f2fe"/>
  <rect x="240" y="412" width="28" height="24" rx="4" fill="#e0f2fe"/>
  <rect x="296" y="412" width="28" height="24" rx="4" fill="#e0f2fe"/>
  <rect x="352" y="412" width="28" height="24" rx="4" fill="#e0f2fe"/>
  <rect x="408" y="412" width="28" height="24" rx="4" fill="#e0f2fe"/>
  <!-- Screen area -->
  <rect x="64" y="128" width="384" height="256" rx="12" fill="#075985"/>
  <!-- Play button circle -->
  <circle cx="256" cy="256" r="88" fill="white" fill-opacity="0.95"/>
  <!-- Play triangle -->
  <polygon points="232,216 232,296 312,256" fill="#0ea5e9"/>
</svg>
